inDegrees=yes
name=ik_S46_A02_T02
DataType=double
version=3
OpenSimVersion=4.3-2021-08-27-4bc7ad9
endheader
time	pelvis_tilt	pelvis_list	pelvis_rotation	pelvis_tx	pelvis_ty	pelvis_tz	hip_flexion_r	hip_adduction_r	hip_rotation_r	knee_angle_r	knee_angle_r_beta	ankle_angle_r	subtalar_angle_r	mtp_angle_r	hip_flexion_l	hip_adduction_l	hip_rotation_l	knee_angle_l	knee_angle_l_beta	ankle_angle_l	subtalar_angle_l	mtp_angle_l	lumbar_extension	lumbar_bending	lumbar_rotation	arm_flex_r	arm_add_r	arm_rot_r	elbow_flex_r	pro_sup_r	wrist_flex_r	wrist_dev_r	arm_flex_l	arm_add_l	arm_rot_l	elbow_flex_l	pro_sup_l	wrist_flex_l	wrist_dev_l
10.93999999999986	0.8544645369775234	-2.442449526036142	-89.64872283676982	0	0.9399999999999999	0	-5.820446225027144	-12.77844433922792	-14.02715967870176	36.29739342059801	0.6335090250811621	0	0	0	-2.465683801100499	0.6534421884897199	-15.51997922099686	-1.883935636835114	-0.0328808797584289	0	0	0	0	0	0	31.29771406405271	-31.29771406405273	4.350285197845387	76.12554105948477	85.64971504596213	0	0	31.29771406405271	-31.29771406405273	4.350285197845387	76.12554105948477	85.64971504584094	0	0
10.95999999999986	0.6696155056223352	-2.26329724288745	-89.72879880004298	0	0.9399999999999999	0	-7.728252983033972	-11.90880995925006	-13.29644461683378	33.9100526688346	0.5918420685958541	0	0	0	-1.387096038015211	0.3323194374264309	-14.61430563804761	-1.233977480335211	-0.02153696992731301	0	0	0	0	0	0	31.30261308729017	-31.30261308729018	4.350746787129064	76.13190009927433	85.64925345670235	0	0	31.30261308729017	-31.30261308729018	4.350746787129064	76.13190009927433	85.64925345658126	0	0
10.97999999999985	0.4631046985830568	-2.084164578545469	-89.89576193045816	0	0.9399999999999999	0	-9.388597779163472	-11.09262876041301	-11.93628980256523	31.48366649875401	0.5494936410030927	0	0	0	-0.3326640082218503	-0.01745641817575559	-13.97260435557852	-0.7108424280136747	-0.0124065408317094	0	0	0	0	0	0	31.30735635775755	-31.30735635775757	4.351192791962567	76.13804405508338	85.64880745189201	0	0	31.30735635775755	-31.30735635775757	4.351192791962567	76.13804405508338	85.64880745177094	0	0
10.99999999999985	0.2521388151624027	-1.84234462381537	-90.16373922172914	0	0.9399999999999999	0	-10.66459113527941	-10.22560051860543	-10.11153608196116	29.12066545596054	0.5082514925782873	0	0	0	0.8177883577764319	-0.3693668598929359	-13.4780988479732	-0.4803131761465332	-0.008383046364468493	0	0	0	0	0	0	31.31204154201149	-31.31204154201151	4.35163348758776	76.14411486991912	85.64836675628956	0	0	31.31204154201149	-31.31204154201151	4.35163348758776	76.14411486991912	85.64836675616858	0	0
11.01999999999985	0.1285208294545779	-1.700190661177633	-90.30484127240007	0	0.9399999999999999	0	-11.75096562386105	-9.491035800684545	-8.484151003805092	27.34288031822408	0.4772232885317652	0	0	0	1.879266423555498	-0.6784519727467275	-13.17785342260567	-0.3074789633182963	-0.005366520290523139	0	0	0	0	0	0	31.3172242263574	-31.31722422635741	4.352122130259067	76.1508465312204	85.64787811364344	0	0	31.3172242263574	-31.31722422635741	4.352122130259067	76.1508465312204	85.64787811352265	0	0
11.03999999999985	-0.2711437089479927	-0.8881669049360567	-90.85765077513889	0	0.9399999999999999	0	-11.77221685622833	-8.359721666120652	-6.439634511998527	25.32608937902188	0.4420236463182979	0	0	0	3.740244447002643	-1.331819761909747	-13.15490343112762	-0.03523248155484385	-0.0006149228067801963	0	0	0	0	0	0	31.32222672881174	-31.32222672881175	4.352591852411952	76.15731678706999	85.64740839151486	0	0	31.32222672881174	-31.32222672881175	4.352591852411952	76.15731678706999	85.64740839139409	0	0
11.05999999999985	-0.4144046423171764	-0.4787658148977521	-91.15268344205253	0	0.9399999999999999	0	-11.22891509487101	-8.130857027736987	-5.841511248837431	24.26872888648266	0.4235692243429796	0	0	0	5.230062506079717	-1.779348677520546	-12.58118028034828	0.5664287143613731	0.00988604604344445	0	0	0	0	0	0	31.32842747669316	-31.32842747669318	4.353176606104692	76.16537236834905	85.64682363785235	0	0	31.32842747669316	-31.32842747669318	4.353176606104692	76.16537236834905	85.64682363773169	0	0
11.07999999999985	-0.5183210648645372	-0.2140969001178136	-91.50874918297413	0	0.9399999999999999	0	-11.66755061820707	-7.262314350390047	-4.700188805196072	22.46570865232203	0.3921005847767975	0	0	0	6.701183762982198	-2.241329422246602	-12.91425574712558	1.718541192569061	0.02999420214148002	0	0	0	0	0	0	31.3334283688401	-31.33342836884011	4.353646721438461	76.17184809479787	85.64635352254288	0	0	31.3334283688401	-31.33342836884011	4.353646721438461	76.17184809479787	85.64635352242232	0	0
11.09999999999985	-0.5585139930386382	-0.05865935541670402	-91.83069773452166	0	0.9399999999999999	0	-11.44501791633686	-7.26420852871025	-4.33195183875312	21.10582811748284	0.3683661920100722	0	0	0	8.200766987929601	-2.650111690723532	-13.20996822854354	2.741143287777958	0.04784197564066781	0	0	0	0	0	0	31.33880090499173	-31.33880090499174	4.354152444195532	76.17881447692349	85.64584779981196	0	0	31.33880090499173	-31.33880090499174	4.354152444195532	76.17881447692349	85.64584779969141	0	0
11.11999999999985	-0.621549480858988	0.02759086524642842	-92.10608510586032	0	0.9399999999999999	0	-12.18305168523919	-5.922858052203549	-4.089935653258225	18.96404027356753	0.3309849422545596	0	0	0	9.484166104500963	-3.066222821889774	-13.4701340543542	3.902642052490808	0.06811395334275397	0	0	0	0	0	0	31.34318265601269	-31.34318265601271	4.354564328026908	76.18448795452888	85.64543591600186	0	0	31.34318265601269	-31.34318265601271	4.354564328026908	76.18448795452888	85.64543591588139	0	0
11.13999999999985	-0.650861857540836	0.02364044933979681	-92.3352354777299	0	0.9399999999999999	0	-12.14074790183296	-5.799137309726917	-3.850224036903501	17.80333785954006	0.3107268634939338	0	0	0	9.427690684451802	-3.208958882714875	-13.74611554460101	2.070311064527094	0.03613374461646657	0	0	0	0	0	0	31.34704028394595	-31.34704028394596	4.354925297265236	76.18945953702398	85.64507494678216	0	0	31.34704028394595	-31.34704028394596	4.354925297265236	76.18945953702398	85.64507494666179	0	0
11.15999999999985	-0.7803922799593593	0.001328846321799259	-92.42679224425031	0	0.9399999999999999	0	-12.22713495238724	-4.616362770137819	-3.764431539923845	17.14549800008757	0.2992453919956312	0	0	0	10.67608676430308	-3.567300490823114	-13.65015095136215	3.263732549191997	0.05696287888790815	0	0	0	0	0	0	31.35244530352209	-31.3524453035221	4.355434165665677	76.19646909954156	85.64456607840805	0	0	31.35244530352209	-31.3524453035221	4.355434165665677	76.19646909954156	85.64456607828772	0	0
11.17999999999985	-1.0550930102971	-0.02791896024584668	-92.43937373167616	0	0.9399999999999999	0	-11.99595779447579	-3.861250267619576	-2.905014391881412	17.27283623813346	0.3014678635132202	0	0	0	11.67179649129611	-4.156646048383689	-13.28100570879083	1.85849143385535	0.03243679464088627	0	0	0	0	0	0	31.35750990520052	-31.35750990520054	4.355910720160779	76.20303338423113	85.64408952393764	0	0	31.35750990520052	-31.35750990520054	4.355910720160779	76.20303338423113	85.64408952381739	0	0
11.19999999999985	-1.554460351976848	-0.04113933820143011	-92.34429175906558	0	0.9399999999999999	0	-11.464687735139	-1.870059801894141	-1.329434420301135	14.85467123433235	0.2592629223403897	0	0	0	12.64705769583464	-5.114883829231364	-12.15563691725392	1.938500710578632	0.03383321995184679	0	0	0	0	0	0	31.37162903921839	-31.37162903921841	4.357129076210408	76.21977553650659	85.64287116795013	0	0	31.37162903921839	-31.37162903921841	4.357129076210408	76.21977553650659	85.64287116783012	0	0
